PathFileType	4	(X/Y/Z)	C:/Users/beibeiliu/ov580/test_trc/User2\sequence.1_training_dense_left.trc
DataRate	CameraRate	NumFrames	NumMarkers	Units	OrigDataRate	OrigDataStartFrame	OrigNumFrames
120	120	17	19	mm	120	254	338
Frame#	Time	ThumbCMC			ThumbMCP			ThumbIP			ThumbTip			IndexMCP			IndexPIP			IndexTip			MiddleMCP			MiddlePIP			MiddleTip			RingMCP			RingPIP			RingTip			PinkyMCP			PinkyPIP			PinkyTip			BackHand1			BackHand2			BackHand3	
		X0	Y0	Z0	X1	Y1	Z1	X2	Y2	Z2	X3	Y3	Z3	X4	Y4	Z4	X5	Y5	Z5	X6	Y6	Z6	X7	Y7	Z7	X8	Y8	Z8	X9	Y9	Z9	X10	Y10	Z10	X11	Y11	Z11	X12	Y12	Z12	X13	Y13	Z13	X14	Y14	Z14	X15	Y15	Z15	X16	Y16	Z16	X17	Y17	Z17	X18	Y18	Z18	
253	2.10833	-124.947	-24.4074	95.3179	-110.562	-38.3735	71.976	-95.5262	-54.1231	44.1555	-85.5742	-68.8626	26.9083	-164.345	-41.6461	17.4223	-161.44	-49.9812	-6.2136	-162.538	-59.4735	-33.1548	-191.71	-41.9343	16.8229	-196.731	-50.6351	-8.57692	-206.669	-64.7668	-37.6189	-216.122	-45.881	32.9348	-226.416	-54.7106	11.8866	-234.885	-68.6986	-16.0458	-229.195	-50.1156	61.5685	-242.065	-58.2142	37.2942	-254.735	-59.9627	20.0781	-199.977	-22.2024	80.1291	-192.641	-4.87482	107.009	-160.963	-11.1241	81.5493	
254	2.11667	-125.318	-19.4536	89.8968	-102.624	-28.8381	69.0194	-89.2721	-44.1815	44.9087	-79.0388	-59.2815	24.3646	-154.036	-42.7321	19.1159	-152.998	-53.2711	-7.44953	-154.764	-66.6532	-35.1121	-186.54	-46.8414	21.7178	-190.515	-59.9565	-7.88571	-197.619	-77.4547	-39.2648	-207.392	-53.1852	35.9511	-215.445	-66.7601	9.59022	-223.931	-83.6173	-13.4213	-221.679	-59.3056	63.6506	-230.387	-69.3764	40.1884	-242.79	-77.2634	18.2542	-193.878	-25.5213	79.3137	-188.144	-7.83232	106.562	-158.898	-8.3493	82.3406	
255	2.125	-124.47	-12.7726	89.1738	-102.086	-17.945	69.4788	-84.0639	-31.1385	43.1907	-72.8645	-45.3749	23.84	-150.088	-42.6928	19.3776	-149.445	-56.564	-8.51669	-149.21	-69.5708	-30.7311	-175.846	-53.305	18.5071	-183.017	-70.2703	-4.467	-187.293	-89.9734	-32.4479	-196.058	-62.4149	36.2805	-205.978	-81.1945	13.4569	-207.457	-98.4546	-11.5632	-210.69	-69.3687	61.6047	-221.166	-84.4391	45.7208	-230.885	-97.5222	22.4362	-189.697	-31.0642	79.9975	-187.599	-10.1112	105.841	-162.033	-7.18721	82.4697	
256	2.13333	-124.142	-2.17304	88.5316	-101.657	-6.02153	65.7374	-86.3318	-19.5747	39.9975	-68.1588	-27.9688	19.7263	-144.038	-42.8082	19.5208	-139.026	-57.217	-10.2775	-138.328	-74.2509	-32.1903	-172.961	-61.8094	22.4932	-172.684	-79.3813	-4.07387	-171.536	-99.8566	-28.5607	-186.151	-74.5314	34.857	-190.976	-92.584	16.6202	-188.592	-113.26	-5.09431	-198.271	-80.8596	65.5301	-202.251	-97.1546	44.6891	-208.869	-114.034	27.5374	-186.754	-39.0382	80.19	-189.144	-15.1047	104.628	-165.145	-8.87764	80.5804	
257	2.14167	-126.525	4.19259	84.8291	-105.201	3.32802	60.2194	-87.5391	-7.06697	38.1864	-69.8488	-15.8756	18.7735	-139.838	-44.4445	12.6902	-135.099	-61.8938	-10.037	-128.875	-76.8446	-29.4051	-161.162	-64.7813	17.7497	-159.273	-89.6017	-6.93234	-152.337	-107.646	-29.1412	-175.31	-80.2685	39.1812	-174.85	-101.637	18.9259	-165.917	-120.483	-2.90757	-183.057	-91.0683	66.3008	-184.83	-111.826	46.3321	-190.009	-129.605	30.4845	-180.833	-46.4297	78.1938	-189.279	-22.511	103.953	-164.72	-15.5172	74.3184	
258	2.15	-131.563	4.99235	81.1701	-110.662	8.49398	62.126	-87.7043	5.76428	30.6347	-72.633	-0.732093	15.361	-136.362	-46.2606	13.1537	-128.946	-60.0894	-9.7903	-119.35	-74.78	-30.5582	-154.629	-72.1068	19.611	-144.413	-90.8358	-7.91373	-136.924	-115.356	-27.9726	-161.393	-88.3204	35.9323	-156.041	-106.931	15.4399	-146.303	-130.265	-3.845	-167.325	-97.4958	62.9206	-166.833	-121.09	46.9298	-163.978	-135.854	33.1389	-176.961	-52.3169	80.2813	-184.688	-29.3798	100.802	-164.804	-17.4369	74.5502	
259	2.15833	-133.963	6.71676	76.0195	-114.518	13.8784	54.7403	-94.3277	9.28178	25.3499	-75.7509	10.7173	9.98011	-134.409	-46.9699	12.1195	-123.257	-54.0084	-12.2725	-111.937	-69.6727	-33.7113	-145.454	-73.6596	17.9619	-135.383	-91.1061	-4.22747	-120.372	-112.944	-30.0979	-149.628	-93.5956	36.3936	-141.569	-109.291	18.9463	-125.362	-127.909	-4.66034	-151.543	-97.9802	65.8272	-146.54	-123.358	49.8463	-140.756	-138.912	29.186	-171.955	-58.2678	81.2419	-180.476	-36.7892	102.323	-164.72	-17.9326	70.0566	
260	2.16667	-137.749	4.72806	75.3438	-120.186	15.3389	51.4931	-100.412	14.1695	23.9714	-83.3057	15.3927	8.91632	-131.325	-47.9424	8.87084	-121.063	-57.5661	-11.3077	-106.98	-67.3076	-36.475	-137.248	-73.563	17.4116	-124.375	-90.1861	-5.76905	-106.645	-109.242	-30.5646	-137.829	-89.7297	36.0094	-126.894	-107.101	16.5529	-108.791	-124.522	-2.60165	-137.677	-104.693	61.3713	-129.724	-120.263	48.2337	-121.116	-139.044	26.9251	-162.983	-63.6777	81.084	-176.298	-45.0114	103.126	-164.228	-26.4916	73.5396	
261	2.175	-143.413	4.67932	77.6915	-126.27	15.6042	50.3512	-106.999	14.171	19.6925	-92.0506	18.8929	2.45492	-130.012	-43.2994	7.10084	-117.411	-52.7973	-17.8017	-102.365	-67.4189	-37.2891	-130.188	-74.7338	15.6375	-112.906	-91.5789	-6.51745	-93.9124	-104.634	-25.5563	-127.785	-92.5559	37.6929	-112.609	-110.668	17.3779	-92.9482	-119.269	-3.09892	-125.352	-100.803	63.7227	-112.076	-118.801	48.484	-100.204	-134.081	28.4482	-154.17	-67.4079	77.3143	-171.369	-53.7468	102.391	-164.939	-26.2599	70.7848	
262	2.18333	-149.048	2.31341	76.6246	-134.178	10.7746	49.3674	-118.693	18.5374	22.6211	-102.29	22.0891	-3.48611	-129.103	-48.7327	8.18452	-115.93	-52.1622	-18.7847	-98.8714	-65.0453	-39.5146	-123.663	-73.6117	18.6365	-104.424	-85.9328	-6.87826	-79.906	-98.9908	-26.2718	-116.305	-92.6406	36.9585	-97.7628	-106.211	17.2722	-78.6166	-111.164	-1.82781	-112.122	-102.171	63.7033	-94.1746	-116.648	47.178	-85.2785	-126.367	32.0138	-151.464	-66.3472	79.7868	-168.356	-56.7302	107.822	-163.834	-34.806	75.1723	
263	2.19167	-156.288	0.920013	75.2183	-144.861	11.5648	45.1153	-129.374	17.1897	15.8116	-116.003	21.1883	-3.67679	-130.022	-47.6919	7.07463	-116.071	-54.4016	-18.9319	-100.18	-59.0531	-39.6105	-118.057	-73.8369	18.2863	-95.4437	-84.3207	-7.52085	-69.0619	-90.7776	-29.2949	-107.873	-87.6461	35.2145	-87.4354	-99.2651	20.2932	-65.7757	-101.372	-2.18026	-99.7701	-94.3718	63.1764	-79.647	-105.397	44.3947	-65.8759	-117.252	29.1235	-141.72	-72.8059	81.4996	-160.608	-61.6627	109.233	-162.965	-39.4082	70.9378	
264	2.2	-159.522	-7.64617	76.9091	-154.24	7.19231	49.7545	-141.3	13.6219	12.3954	-131.232	21.1862	-5.03762	-129.375	-53.5392	8.4725	-119.564	-53.4498	-16.0765	-101.47	-59.3614	-38.9706	-110.813	-76.5455	15.7575	-91.5278	-77.9297	-8.57062	-66.6721	-79.8738	-29.9891	-99.5815	-85.9439	36.9481	-78.9137	-90.2062	15.3829	-57.4164	-90.23	-3.88656	-87.7866	-91.5621	60.2212	-70.8037	-96.4738	45.6628	-54.9254	-101.07	28.6193	-136.688	-71.9604	80.1592	-152.997	-65.9505	107.395	-163.731	-46.8157	75.7637	
265	2.20833	-164.44	-13.2093	71.496	-161.737	-0.285032	48.0896	-155.528	8.93821	13.8761	-144.471	14.0294	-7.43117	-131.095	-54.7914	10.6024	-117.738	-57.2007	-20.7345	-101.558	-58.9117	-40.2045	-111.285	-72.9272	15.5982	-88.886	-76.3539	-7.08469	-63.9883	-73.668	-31.9443	-93.8488	-81.8807	30.6578	-71.434	-85.9879	14.2903	-53.0895	-81.8171	-6.21214	-82.4125	-85.2343	58.734	-60.1629	-88.1215	38.8806	-43.6145	-91.2591	22.4372	-131.937	-76.0986	81.8474	-147.352	-71.1311	106.617	-162.794	-51.5939	74.0413	
266	2.21667	-168.476	-19.7165	72.7599	-169.525	-9.08971	46.4351	-166.438	-0.170436	13.703	-158.247	5.87003	-9.70788	-133.282	-58.5518	9.19931	-124.358	-58.7522	-18.7158	-107.853	-57.5581	-42.7821	-108.805	-74.8076	14.5453	-89.6938	-73.0212	-12.3069	-65.4322	-67.5845	-38.7299	-93.0903	-79.3026	28.9412	-72.0354	-79.3015	9.95003	-49.4207	-74.345	-15.3798	-77.8854	-80.341	52.2809	-56.7223	-82.295	34.9268	-42.821	-81.5155	15.5456	-126.816	-77.694	77.6498	-138.976	-72.4786	110.14	-160.333	-56.708	76.9818	
267	2.225	-172.469	-26.1479	76.2604	-179.98	-16.0499	47.1353	-175.506	-8.37792	17.1964	-173.835	-1.34997	-9.89535	-139.263	-61.6705	8.31794	-128.174	-60.9122	-22.8443	-111.233	-59.6953	-47.6103	-111.234	-74.3091	8.99946	-95.4211	-71.2275	-14.6296	-76.217	-63.8108	-43.0279	-91.7214	-78.9784	29.0319	-73.9879	-75.8561	2.57865	-57.5539	-69.0256	-18.2498	-79.3389	-76.0522	49.0659	-59.7959	-75.8234	29.6201	-45.0678	-75.7452	10.504	-120.442	-80.1203	80.4598	-134.161	-73.927	112.308	-157.523	-62.0632	80.2183	
268	2.23333	-177.037	-31.5278	81.3017	-183.741	-23.789	52.6497	-187.926	-17.2419	15.8397	-185.81	-8.96394	-3.75335	-145.801	-63.7992	4.53764	-138.236	-64.2035	-18.5557	-122.741	-61.2585	-49.1533	-115.634	-75.6505	9.61502	-99.6468	-71.4645	-20.2872	-87.2411	-64.0655	-43.7501	-93.5943	-77.9249	25.253	-81.1611	-73.7114	0.0949095	-67.1781	-65.2361	-22.264	-76.775	-75.1445	47.2105	-64.3892	-71.8614	24.6052	-49.229	-68.0877	1.1851	-120.255	-80.412	80.453	-133.317	-74.7761	112.924	-155.773	-68.4481	80.0022	
269	2.24167	-182.528	-34.5357	86.8096	-194.049	-28.677	55.7686	-196.758	-23.4828	23.9421	-198.362	-17.3024	-3.97561	-151.814	-67.1762	10.9941	-144.755	-68.634	-17.7208	-136.951	-63.7921	-46.1894	-121.703	-77.5117	13.5977	-110.632	-73.8296	-16.5516	-97.3745	-65.8399	-45.6999	-102.353	-77.0082	19.8609	-87.9307	-73.1068	-5.80421	-72.9639	-64.3754	-31.0252	-83.0668	-72.4549	45.6282	-68.9769	-69.3543	20.9843	-57.5298	-66.5541	0.415245	-121.278	-77.6822	81.2792	-134.209	-76.2292	111.737	-161.191	-67.0125	85.6154	
